<?xml version="1.0" encoding="UTF-8"?>
<svg version="1.1" xmlns="http://www.w3.org/2000/svg" width="500" height="500">
<path d="M0 0 C165 0 330 0 500 0 C500 165 500 330 500 500 C335 500 170 500 0 500 C0 335 0 170 0 0 Z " fill="#1500BF" transform="translate(0,0)"/>
<path d="M0 0 C2.49210029 0.37343195 3.71291669 0.68684915 5.44116211 2.57202148 C6.10257202 3.58631226 6.10257202 3.58631226 6.77734375 4.62109375 C7.28410645 5.38252686 7.79086914 6.14395996 8.31298828 6.9284668 C8.84907715 7.75644775 9.38516602 8.58442871 9.9375 9.4375 C11.09812421 11.18371338 12.26094124 12.928471 13.42578125 14.671875 C14.0182666 15.56197266 14.61075195 16.45207031 15.22119141 17.36914062 C17.93048442 21.37618723 20.77101594 25.28281462 23.625 29.1875 C28.72733697 36.19351052 33.68323173 43.28642247 38.5625 50.44921875 C38.97411377 51.03227783 39.38572754 51.61533691 39.80981445 52.21606445 C41 54 41 54 42.02416992 55.97729492 C43.19550506 58.05840492 44.15561951 59.47304105 46 61 C49.77531903 61.98830931 53.4269264 61.97976152 57.3125 61.9375 C58.33923828 61.95361328 59.36597656 61.96972656 60.42382812 61.98632812 C62.95057839 62.02158511 65.47324745 62.02511809 68 62 C68.66588135 63.60439941 68.66588135 63.60439941 69.34521484 65.24121094 C70.99497047 69.21512109 72.64661553 73.18824363 74.29882812 77.16113281 C75.01321015 78.87966889 75.72708184 80.5984172 76.44042969 82.31738281 C77.46675178 84.79027588 78.49491581 87.26239612 79.5234375 89.734375 C80.00011368 90.88459137 80.00011368 90.88459137 80.48641968 92.05804443 C80.93666 93.13871185 80.93666 93.13871185 81.39599609 94.24121094 C81.65802826 94.87186462 81.92006042 95.50251831 82.19003296 96.15228271 C83.0605455 98.13811792 84.01542321 100.06851567 85 102 C86.2331613 100.14123491 87.43576201 98.26216916 88.625 96.375 C89.29789063 95.33085937 89.97078125 94.28671875 90.6640625 93.2109375 C92.32836423 90.0798063 92.32836423 90.0798063 91.3125 86.91796875 C90.879375 85.95503906 90.44625 84.99210937 90 84 C86.32631068 73.06319098 85.13527375 62.49976271 89.6875 51.625 C94.34521619 42.30956763 100.16570305 36.48509996 109 31 C109.68449219 30.54367188 110.36898437 30.08734375 111.07421875 29.6171875 C119.37035334 24.9557052 130.70508843 25.83824725 139.703125 27.8125 C150.13135113 31.37094683 159.27877544 38.92867031 164.44921875 48.75390625 C164.85785156 49.68074219 165.26648438 50.60757813 165.6875 51.5625 C166.10386719 52.49191406 166.52023437 53.42132813 166.94921875 54.37890625 C170.72184593 63.78943724 169.76903021 73.84618068 166.26953125 83.20703125 C163.33109823 89.67158389 159.39041875 95.35825052 154 100 C153.34 100 152.68 100 152 100 C152.33 101.32 152.66 102.64 153 104 C153.9075 103.9175 154.815 103.835 155.75 103.75 C159 104 159 104 161.3125 105.625 C163.35009466 108.49272581 163.64525317 110.52348107 164 114 C164.58308023 118.73127958 166.67518866 122.44849918 168.9375 126.5625 C173.87125718 135.76844669 178.66481826 145.04398558 183.38137817 154.36276245 C184.20845025 155.99196313 185.04003871 157.61887915 185.87619019 159.24343872 C187.06710239 161.55893542 188.24221218 163.88184175 189.4140625 166.20703125 C189.95712288 167.25144379 189.95712288 167.25144379 190.51115417 168.31695557 C192.52707413 172.36567182 193.6149274 175.47365688 193 180 C189.26017511 184.57089709 186.33167487 186.75017769 180.5 187.375 C176.25859121 186.92056334 175.67135525 186.21393372 173 183 C171.68675739 180.65745912 170.49180444 178.35719294 169.34375 175.9375 C168.64226607 174.49723068 167.94042813 173.05713374 167.23828125 171.6171875 C166.8736377 170.86276367 166.50899414 170.10833984 166.13330078 169.33105469 C164.21761049 165.39072489 162.24638519 161.4783356 160.28125 157.5625 C159.48671851 155.97408869 158.69244815 154.38554673 157.8984375 152.796875 C157.50495117 152.00990234 157.11146484 151.22292969 156.70605469 150.41210938 C153.47070312 143.94140625 150.23535156 137.47070313 147 131 C146.99413376 131.9204158 146.98826752 132.8408316 146.98222351 133.78913879 C146.92435963 142.45618601 146.8523194 151.12297379 146.76428509 159.78976917 C146.71952572 164.24565135 146.68028207 168.70144092 146.65356445 173.1574707 C146.62758672 177.45647199 146.58722412 181.75511796 146.53681374 186.05389977 C146.52010745 187.69532546 146.50861664 189.33681266 146.50238609 190.97831154 C146.49278554 193.27473981 146.46477686 195.57025131 146.43237305 197.86645508 C146.41571846 199.8283654 146.41571846 199.8283654 146.39872742 201.82991028 C146 205 146 205 144.66340637 206.92158508 C141.95949029 208.67458031 139.42806022 208.38963749 136.25 208.3984375 C135.26821777 208.40274277 135.26821777 208.40274277 134.26660156 208.40713501 C132.88475681 208.40917368 131.50288307 208.40365746 130.12109375 208.39111328 C128.0071555 208.37505436 125.89512887 208.39096601 123.78125 208.41015625 C122.43749578 208.40817378 121.09374276 208.40433002 119.75 208.3984375 C118.52796875 208.39505371 117.3059375 208.39166992 116.046875 208.38818359 C113 208 113 208 111.33211803 206.73793316 C109.68240479 204.5856529 109.62920994 203.49533166 109.63923645 200.80488586 C109.63305046 199.52395554 109.63305046 199.52395554 109.6267395 198.21714783 C109.63752533 197.28350906 109.64831116 196.3498703 109.65942383 195.38793945 C109.65898575 194.40239075 109.65854767 193.41684204 109.65809631 192.40142822 C109.66018907 189.13851218 109.68354347 185.87610771 109.70703125 182.61328125 C109.71262546 180.35312684 109.71689638 178.09296879 109.71989441 175.83280945 C109.7313569 169.87985211 109.76083634 163.92711385 109.79400635 157.97424316 C109.82467688 151.90147872 109.8383933 145.82867892 109.85351562 139.75585938 C109.88570455 127.83714325 109.93691799 115.91858983 110 104 C109.23018799 103.71012207 108.46037598 103.42024414 107.66723633 103.12158203 C104.5253991 101.80042869 102.31010833 100.04302289 99.6875 97.875 C98.80449219 97.15054688 97.92148437 96.42609375 97.01171875 95.6796875 C96.34785156 95.12539062 95.68398438 94.57109375 95 94 C94.73960937 94.86882812 94.47921875 95.73765625 94.2109375 96.6328125 C92.99098435 100.02506932 91.52322528 102.81628765 89.625 105.875 C89.03976562 106.84179688 88.45453125 107.80859375 87.8515625 108.8046875 C87.24054688 109.52914062 86.62953125 110.25359375 86 111 C84.68 111 83.36 111 82 111 C79.57408324 105.05714631 77.15355608 99.11211888 74.73681641 93.16552734 C73.91352174 91.14158108 73.08898095 89.11814126 72.26318359 87.09521484 C71.07844621 84.19239491 69.89815881 81.28780078 68.71875 78.3828125 C68.16096863 77.02024826 68.16096863 77.02024826 67.59191895 75.63015747 C67.25156616 74.78943695 66.91121338 73.94871643 66.56054688 73.08251953 C66.2585437 72.34083527 65.95654053 71.599151 65.64538574 70.83499146 C65 69 65 69 65 67 C64.40574219 67.05236816 63.81148438 67.10473633 63.19921875 67.15869141 C46.51201353 68.44007672 46.51201353 68.44007672 41.28125 65.44140625 C39.16608691 62.76498278 37.62891577 60.0000917 36 57 C34.54947813 54.81256217 33.04809584 52.66517874 31.54345703 50.51464844 C29.84421069 48.08090199 28.17721021 45.62755527 26.515625 43.16796875 C22.93628734 37.88854635 19.28887385 32.65849556 15.625 27.4375 C15.0666748 26.64166504 14.50834961 25.84583008 13.93310547 25.02587891 C12.84926416 23.48171889 11.76512393 21.93776863 10.68066406 20.39404297 C7.78259732 16.26585551 4.89148919 12.13279604 2 8 C-1.19163856 9.39647893 -3.21134086 11.01603206 -5.57421875 13.5625 C-6.56869019 14.62658081 -6.56869019 14.62658081 -7.58325195 15.7121582 C-8.27765381 16.467146 -8.97205566 17.22213379 -9.6875 18 C-10.40574951 18.77239014 -11.12399902 19.54478027 -11.86401367 20.34057617 C-16.23311107 25.0495197 -20.5645051 29.79162711 -24.83984375 34.5859375 C-27.49733448 37.55579152 -30.18326591 40.4986964 -32.875 43.4375 C-33.34010986 43.94643799 -33.80521973 44.45537598 -34.28442383 44.97973633 C-35.51749564 46.32484398 -36.75841222 47.6627489 -38 49 C-38.83337891 49.92425781 -38.83337891 49.92425781 -39.68359375 50.8671875 C-40.11800781 51.24101562 -40.55242187 51.61484375 -41 52 C-43.1875 51.6875 -43.1875 51.6875 -45 51 C-40.86069138 42.03800633 -32.24538019 34.94741722 -25.55859375 27.80859375 C-20.66316534 22.57780819 -15.83242082 17.2889722 -11 12 C-8.93829953 9.74926672 -6.8754079 7.49962658 -4.8125 5.25 C-3.88148929 4.23439437 -2.95049764 3.21877126 -2.01953125 2.203125 C-1.35308594 1.47609375 -0.68664062 0.7490625 0 0 Z " fill="#2894DF" transform="translate(196,109)"/>
<path d="M0 0 C0.70411514 -0.00570007 1.40823029 -0.01140015 2.13368225 -0.01727295 C3.62580863 -0.02673463 5.11795601 -0.03326156 6.61010742 -0.03710938 C8.89734175 -0.04682059 11.18367974 -0.07783325 13.47070312 -0.109375 C14.91796339 -0.11590425 16.36523011 -0.12115503 17.8125 -0.125 C18.49900131 -0.1373468 19.18550262 -0.1496936 19.89280701 -0.16241455 C21.82397461 -0.15332031 21.82397461 -0.15332031 24.97265625 0.203125 C27.12702573 3.43467923 27.22449761 4.29868552 27.23335266 8.0234375 C27.24043747 9.01609619 27.24752228 10.00875488 27.25482178 11.03149414 C27.25234436 12.11938232 27.24986694 13.20727051 27.24731445 14.328125 C27.25242538 15.47466553 27.25753632 16.62120605 27.26280212 17.80249023 C27.27673355 21.60275451 27.27573882 25.40283818 27.2734375 29.203125 C27.27732215 31.83724028 27.28165633 34.47135492 27.28642273 37.10546875 C27.29463806 42.63022471 27.29372578 48.15492954 27.28833008 53.6796875 C27.28228656 60.06849101 27.2946103 66.45707449 27.31590015 72.84584045 C27.33562255 78.98986241 27.33869212 85.13378128 27.33516502 91.27783203 C27.33567975 93.89339719 27.34094571 96.50896575 27.35097694 99.12451172 C27.36326263 102.77589052 27.35659692 106.42675492 27.3449707 110.078125 C27.35643631 111.70995728 27.35643631 111.70995728 27.36813354 113.37475586 C27.36111923 114.36741455 27.35410492 115.36007324 27.34687805 116.3828125 C27.34704579 117.24632324 27.34721354 118.10983398 27.34738636 118.99951172 C26.8870125 121.70675602 26.16975013 122.59353481 23.97265625 124.203125 C20.90991211 124.57543945 20.90991211 124.57543945 17.1875 124.56640625 C16.20216026 124.56715401 16.20216026 124.56715401 15.19691467 124.56791687 C13.81085173 124.56557988 12.42478426 124.55587325 11.03881836 124.53930664 C8.91416641 124.51566961 6.79076603 124.51875308 4.66601562 124.52539062 C-5.7481846 124.48228415 -5.7481846 124.48228415 -8.02734375 122.203125 C-8.27623272 120.07012081 -8.27623272 120.07012081 -8.27458191 117.37571716 C-8.2787764 116.35630035 -8.28297089 115.33688354 -8.28729248 114.28657532 C-8.28167297 113.16389755 -8.27605347 112.04121979 -8.27026367 110.88452148 C-8.27216202 109.70565369 -8.27406036 108.52678589 -8.27601624 107.31219482 C-8.27909196 104.07468401 -8.27320157 100.83734045 -8.26306319 97.59984851 C-8.25429453 94.21704429 -8.2560399 90.83424454 -8.25642395 87.45143127 C-8.25548688 81.77106417 -8.24679646 76.09075044 -8.2331543 70.41040039 C-8.21742076 63.8347659 -8.21215643 57.25918985 -8.21288985 50.6835379 C-8.21349932 44.36706633 -8.2084018 38.05061386 -8.20009804 31.73414803 C-8.19655949 29.04157423 -8.19473398 26.3490072 -8.19420433 23.6564312 C-8.19204838 19.90170181 -8.18332058 16.1470474 -8.17260742 12.39233398 C-8.17306061 11.26763199 -8.17351379 10.14292999 -8.17398071 8.98414612 C-8.16971573 7.96754913 -8.16545074 6.95095215 -8.16105652 5.90354919 C-8.15938067 5.01477302 -8.15770483 4.12599684 -8.1559782 3.21028805 C-7.86571268 -1.31890474 -3.56340333 0.02199487 0 0 Z " fill="#1A05C0" transform="translate(146.02734375,192.796875)"/>
<path d="M0 0 C9.03925817 5.53833913 14.85589596 13.11106423 17.53125 23.3984375 C19.42907303 33.93135529 17.60640996 44.14793576 11.56640625 53.0546875 C5.86257405 60.13824969 -0.38853885 64.2486848 -9 67 C-9.99 67.33 -10.98 67.66 -12 68 C-21.85896148 68.63606203 -32.44434698 67.42434097 -40.16015625 60.78515625 C-40.76730469 60.19605469 -41.37445313 59.60695312 -42 59 C-42.69996094 58.33871094 -43.39992188 57.67742187 -44.12109375 56.99609375 C-51.33129699 49.60067428 -54.16051813 42.16764646 -54.4375 31.875 C-54.05922107 20.68526514 -50.06639374 11.48926247 -41.8125 3.75 C-29.60517892 -5.75048032 -13.78168786 -7.39398491 0 0 Z " fill="#1504C0" transform="translate(342,145)"/>
<path d="M0 0 C8.25 0 16.5 0 25 0 C25 50.82 25 101.64 25 154 C16.75 154 8.5 154 0 154 C0 103.18 0 52.36 0 0 Z " fill="#1500BF" transform="translate(185,158)"/>
<path d="M0 0 C8.25 0 16.5 0 25 0 C25 39.27 25 78.54 25 119 C16.75 119 8.5 119 0 119 C0 79.73 0 40.46 0 0 Z " fill="#1500BF" transform="translate(227,193)"/>
<path d="M0 0 C1.02075623 -0.00287018 1.02075623 -0.00287018 2.06213379 -0.00579834 C3.50122446 -0.00715963 4.94032744 -0.00346705 6.37939453 0.00488281 C8.58524087 0.01558372 10.79027281 0.00498628 12.99609375 -0.0078125 C14.39323097 -0.00649089 15.79036768 -0.00392848 17.1875 0 C18.46302734 0.00225586 19.73855469 0.00451172 21.05273438 0.00683594 C24.09375 0.265625 24.09375 0.265625 26.09375 2.265625 C26.29210567 4.84467773 26.36652102 7.31634331 26.35253906 9.89648438 C26.3560437 10.68360306 26.35954834 11.47072174 26.36315918 12.2816925 C26.37198243 14.89100896 26.36612532 17.50005565 26.359375 20.109375 C26.36072148 21.91776583 26.36266187 23.72615631 26.36517334 25.5345459 C26.3681254 29.32759034 26.36382433 33.1205407 26.35449219 36.91357422 C26.3430976 41.78303262 26.34965663 46.65227058 26.36163712 51.52172089 C26.3688535 55.25683258 26.36656881 58.99189175 26.36138153 62.727005 C26.36004442 64.52281215 26.36169489 66.31862402 26.36634064 68.11442566 C26.37140226 70.62133474 26.36370093 73.12788348 26.35253906 75.63476562 C26.35658752 76.3818428 26.36063599 77.12891998 26.36480713 77.89863586 C26.32227869 83.03709631 26.32227869 83.03709631 24.09375 85.265625 C19.67531451 85.6646889 15.24255161 85.59465857 10.80810547 85.58129883 C8.60203766 85.57813688 6.39730831 85.60160076 4.19140625 85.62695312 C2.79427253 85.62922588 1.39713519 85.62992972 0 85.62890625 C-1.27552734 85.63188721 -2.55105469 85.63486816 -3.86523438 85.63793945 C-4.86876953 85.51507568 -5.87230469 85.39221191 -6.90625 85.265625 C-9.3519974 81.59700389 -9.18842763 78.85422266 -9.16503906 74.61303711 C-9.1685437 73.83552597 -9.17204834 73.05801483 -9.17565918 72.25694275 C-9.18446583 69.68552742 -9.17863173 67.1143869 -9.171875 64.54296875 C-9.17322182 62.7584274 -9.17516249 60.97388641 -9.17767334 59.18934631 C-9.18062304 55.44935615 -9.17633139 51.70946149 -9.16699219 47.96948242 C-9.15558948 43.16843293 -9.16216325 38.36760683 -9.17413712 33.56656551 C-9.18135283 29.88206794 -9.17906926 26.19762362 -9.17388153 22.51312447 C-9.17254466 20.7424371 -9.17419405 18.97174493 -9.17884064 17.20106316 C-9.18390207 14.73018391 -9.17620161 12.25967027 -9.16503906 9.78881836 C-9.16908752 9.05266296 -9.17313599 8.31650757 -9.17730713 7.55804443 C-9.11594684 0.25151322 -6.85289604 0.01211983 0 0 Z " fill="#1A06C0" transform="translate(272.90625,231.734375)"/>
<path d="M0 0 C2.475 0.495 2.475 0.495 5 1 C7.14429729 1.09124669 9.29126813 1.13005591 11.4375 1.125 C12.52933594 1.12757813 13.62117188 1.13015625 14.74609375 1.1328125 C17.91192524 1.00359489 20.89035545 0.59097317 24 0 C24.625 1.8125 24.625 1.8125 25 4 C24.01 5.485 24.01 5.485 23 7 C23.0931435 11.34170904 23.0931435 11.34170904 25 15 C25.09504251 17.52541002 25.12557158 20.02337126 25.11352539 22.54907227 C25.11367142 23.33925751 25.11381744 24.12944275 25.1139679 24.943573 C25.11326857 27.56787822 25.10547527 30.19211336 25.09765625 32.81640625 C25.09579214 34.63101665 25.0943682 36.44562756 25.09336853 38.26023865 C25.08954279 43.0459023 25.07971204 47.8315358 25.06866455 52.6171875 C25.05845163 57.49674064 25.05387117 62.37629864 25.04882812 67.25585938 C25.03808981 76.83725499 25.02049257 86.41862028 25 96 C16.75 96 8.5 96 0 96 C0 64.32 0 32.64 0 0 Z " fill="#1601BF" transform="translate(312,216)"/>
<path d="M0 0 C6.82115532 3.93102295 11.28740562 9.35385208 13.5625 16.9375 C14.67735922 24.97687367 13.29132675 31.31495329 8.5625 37.9375 C3.64651989 43.3324267 -1.06938856 47.50251491 -8.55859375 48.109375 C-16.28820853 48.37007027 -22.44985721 46.72182631 -28.50390625 41.8125 C-34.2675531 36.22350912 -36.8036062 30.8727271 -37.0625 22.8125 C-36.71179966 15.30098807 -34.91464385 10.80577183 -30.0625 5.1875 C-21.2408566 -2.37390863 -10.99372662 -5.09587632 0 0 Z " fill="#1501BF" transform="translate(335.4375,154.0625)"/>
<path d="M0 0 C2.04139438 0.00316307 4.08134303 -0.02031744 6.12255859 -0.0456543 C8.05035156 -0.04662109 8.05035156 -0.04662109 10.01708984 -0.04760742 C11.19722656 -0.05058838 12.37736328 -0.05356934 13.59326172 -0.05664062 C16.54833984 0.31567383 16.54833984 0.31567383 18.20922279 1.44276428 C20.16836207 4.18284637 19.92602222 6.30678851 19.92929077 9.65454102 C19.93631073 10.62301279 19.93631073 10.62301279 19.9434725 11.61104965 C19.95545593 13.77842388 19.94595279 15.9451697 19.93652344 18.11254883 C19.94058768 19.66475799 19.94592872 21.21696427 19.95245361 22.76916504 C19.96615071 26.98813445 19.96081876 31.20688421 19.95131636 35.42585754 C19.94373212 39.8367269 19.95076192 44.24757719 19.95547485 48.65844727 C19.96093602 56.06635929 19.95373135 63.47418166 19.93945312 70.88208008 C19.9231259 79.45213379 19.92841415 88.02197342 19.94493234 96.59202194 C19.95853695 103.94410411 19.9604719 111.29612175 19.95261633 118.64821243 C19.94793416 123.04191854 19.94732986 127.43552395 19.9572258 131.82922363 C19.96587831 135.95951889 19.95990517 140.08953755 19.94254303 144.21980286 C19.93856897 145.73756958 19.9397279 147.2553595 19.94633102 148.77311707 C19.95450081 150.84133012 19.94428178 152.90865082 19.92929077 154.97680664 C19.92815969 156.13529114 19.92702862 157.29377563 19.92586327 158.48736572 C19.54833984 161.31567383 19.54833984 161.31567383 18.20922279 163.18858337 C15.56649357 164.98196375 13.16766374 164.68691325 10.01708984 164.67895508 C8.73189453 164.67831055 7.44669922 164.67766602 6.12255859 164.67700195 C5.45401855 164.66870361 4.78547852 164.66040527 4.09667969 164.65185547 C2.05542533 164.62825575 0.01547729 164.6312973 -2.02587891 164.63793945 C-12.05121965 164.58263416 -12.05121965 164.58263416 -15.45166016 162.31567383 C-15.82918358 159.5763855 -15.82918358 159.5763855 -15.83261108 156.0144043 C-15.83729106 155.3607382 -15.84197103 154.70707211 -15.84679282 154.03359795 C-15.85880308 151.83314882 -15.84926268 149.63331559 -15.83984375 147.43286133 C-15.8439068 145.85947301 -15.84924717 144.28608755 -15.85577393 142.71270752 C-15.86948519 138.4317657 -15.86413327 134.15104005 -15.85463667 129.8700943 C-15.84705973 125.39735822 -15.85408019 120.92464108 -15.85879517 116.4519043 C-15.86425847 108.93966334 -15.85704606 101.42751076 -15.84277344 93.9152832 C-15.8264458 85.22083135 -15.83173391 76.52659052 -15.84825265 67.83214378 C-15.86185118 60.37733843 -15.8637952 52.92259672 -15.85593665 45.46778297 C-15.85125112 41.01093714 -15.85065932 36.5541906 -15.86054611 32.09735107 C-15.86918982 27.90797765 -15.86324174 23.71887721 -15.84586334 19.52953339 C-15.84188455 17.98877161 -15.84305622 16.44798699 -15.84965134 14.90723419 C-15.85780254 12.8101567 -15.84762486 10.71396388 -15.83261108 8.61694336 C-15.83091447 6.85376266 -15.83091447 6.85376266 -15.82918358 5.05496216 C-15.70460085 4.15099701 -15.58001812 3.24703186 -15.45166016 2.31567383 C-10.70257787 -0.85038103 -5.58680419 -0.01817832 0 0 Z M-10.45166016 5.31567383 C-10.45166016 56.13567383 -10.45166016 106.95567383 -10.45166016 159.31567383 C-2.20166016 159.31567383 6.04833984 159.31567383 14.54833984 159.31567383 C14.54833984 108.49567383 14.54833984 57.67567383 14.54833984 5.31567383 C6.29833984 5.31567383 -1.95166016 5.31567383 -10.45166016 5.31567383 Z " fill="#F1F0FB" transform="translate(195.45166015625,152.684326171875)"/>
<path d="M0 0 C1.02075623 -0.00287018 1.02075623 -0.00287018 2.06213379 -0.00579834 C3.50122446 -0.00715963 4.94032744 -0.00346705 6.37939453 0.00488281 C8.58524087 0.01558372 10.79027281 0.00498628 12.99609375 -0.0078125 C14.39323097 -0.00649089 15.79036768 -0.00392848 17.1875 0 C18.46302734 0.00225586 19.73855469 0.00451172 21.05273438 0.00683594 C24.09375 0.265625 24.09375 0.265625 26.09375 2.265625 C26.34822559 4.45830536 26.34822559 4.45830536 26.35444641 7.23815918 C26.36153122 8.28978745 26.36861603 9.34141571 26.37591553 10.4249115 C26.37343811 11.58342117 26.37096069 12.74193085 26.3684082 13.93554688 C26.37351913 15.15182266 26.37863007 16.36809845 26.38389587 17.62123108 C26.39543784 20.96213109 26.39786179 24.30278352 26.39533257 27.64368629 C26.39426476 30.42966042 26.39914128 33.21561151 26.403938 36.00158072 C26.41504183 42.57187203 26.41546547 49.14210618 26.40942383 55.71240234 C26.4033801 62.49825788 26.41570301 69.28390628 26.4369939 76.06972647 C26.4545853 81.88972089 26.46061523 87.70964924 26.45735615 93.52966928 C26.45553943 97.00843847 26.45821801 100.48705985 26.47207069 103.96580505 C26.48692997 107.84252114 26.47770051 111.71897144 26.46606445 115.59570312 C26.47753006 117.33346764 26.47753006 117.33346764 26.48922729 119.1063385 C26.48221298 120.15796677 26.47519867 121.20959503 26.4679718 122.29309082 C26.46813954 123.21044258 26.46830729 124.12779434 26.46848011 125.07294464 C26.28298871 126.15832142 26.28298871 126.15832142 26.09375 127.265625 C21.29573236 130.46430343 15.77077054 129.59887956 10.15991211 129.58129883 C8.03512671 129.57813078 5.91172345 129.60163376 3.78710938 129.62695312 C2.44010593 129.62922537 1.09309873 129.62992996 -0.25390625 129.62890625 C-1.48117432 129.63188721 -2.70844238 129.63486816 -3.97290039 129.63793945 C-4.94090576 129.51507568 -5.90891113 129.39221191 -6.90625 129.265625 C-9.09784477 125.97823284 -9.15705459 125.0236205 -9.16021729 121.21080017 C-9.16585693 120.1662114 -9.17149658 119.12162262 -9.17730713 118.04537964 C-9.17325867 116.89981598 -9.16921021 115.75425232 -9.16503906 114.57397461 C-9.1685437 113.36730637 -9.17204834 112.16063812 -9.17565918 110.91740417 C-9.18296014 107.6075479 -9.18123959 104.29794122 -9.17490101 100.98809886 C-9.16984178 97.52702035 -9.17453214 94.06595258 -9.17767334 90.60487366 C-9.18131273 84.79344769 -9.17651411 78.98207255 -9.16699219 73.1706543 C-9.15610255 66.44673339 -9.15963697 59.72293372 -9.170645 52.99901575 C-9.17971257 47.22995906 -9.18100592 41.46093893 -9.17576766 35.69187742 C-9.17264569 32.24445931 -9.17224491 28.79709824 -9.17884064 25.34968376 C-9.18567542 21.5090346 -9.17621002 17.66852197 -9.16503906 13.82788086 C-9.16908752 12.68029297 -9.17313599 11.53270508 -9.17730713 10.3503418 C-9.17166748 9.30857285 -9.16602783 8.26680389 -9.16021729 7.19346619 C-9.15908621 5.83044829 -9.15908621 5.83044829 -9.15793228 4.43989468 C-8.54074718 -0.89193421 -4.35001656 0.00769331 0 0 Z M-3.90625 5.265625 C-3.90625 44.535625 -3.90625 83.805625 -3.90625 124.265625 C4.34375 124.265625 12.59375 124.265625 21.09375 124.265625 C21.09375 84.995625 21.09375 45.725625 21.09375 5.265625 C12.84375 5.265625 4.59375 5.265625 -3.90625 5.265625 Z " fill="#F3F2FB" transform="translate(230.90625,187.734375)"/>
<path d="M0 0 C0.70411514 -0.00570007 1.40823029 -0.01140015 2.13368225 -0.01727295 C3.62580863 -0.02673463 5.11795601 -0.03326156 6.61010742 -0.03710938 C8.89734175 -0.04682059 11.18367974 -0.07783325 13.47070312 -0.109375 C14.91796339 -0.11590425 16.36523011 -0.12115503 17.8125 -0.125 C18.49900131 -0.1373468 19.18550262 -0.1496936 19.89280701 -0.16241455 C21.82397461 -0.15332031 21.82397461 -0.15332031 24.97265625 0.203125 C27.12702573 3.43467923 27.22449761 4.29868552 27.23335266 8.0234375 C27.24043747 9.01609619 27.24752228 10.00875488 27.25482178 11.03149414 C27.25234436 12.11938232 27.24986694 13.20727051 27.24731445 14.328125 C27.25242538 15.47466553 27.25753632 16.62120605 27.26280212 17.80249023 C27.27673355 21.60275451 27.27573882 25.40283818 27.2734375 29.203125 C27.27732215 31.83724028 27.28165633 34.47135492 27.28642273 37.10546875 C27.29463806 42.63022471 27.29372578 48.15492954 27.28833008 53.6796875 C27.28228656 60.06849101 27.2946103 66.45707449 27.31590015 72.84584045 C27.33562255 78.98986241 27.33869212 85.13378128 27.33516502 91.27783203 C27.33567975 93.89339719 27.34094571 96.50896575 27.35097694 99.12451172 C27.36326263 102.77589052 27.35659692 106.42675492 27.3449707 110.078125 C27.35643631 111.70995728 27.35643631 111.70995728 27.36813354 113.37475586 C27.36111923 114.36741455 27.35410492 115.36007324 27.34687805 116.3828125 C27.34704579 117.24632324 27.34721354 118.10983398 27.34738636 118.99951172 C26.8870125 121.70675602 26.16975013 122.59353481 23.97265625 124.203125 C20.90991211 124.57543945 20.90991211 124.57543945 17.1875 124.56640625 C16.20216026 124.56715401 16.20216026 124.56715401 15.19691467 124.56791687 C13.81085173 124.56557988 12.42478426 124.55587325 11.03881836 124.53930664 C8.91416641 124.51566961 6.79076603 124.51875308 4.66601562 124.52539062 C-5.7481846 124.48228415 -5.7481846 124.48228415 -8.02734375 122.203125 C-8.27623272 120.07012081 -8.27623272 120.07012081 -8.27458191 117.37571716 C-8.2787764 116.35630035 -8.28297089 115.33688354 -8.28729248 114.28657532 C-8.28167297 113.16389755 -8.27605347 112.04121979 -8.27026367 110.88452148 C-8.27216202 109.70565369 -8.27406036 108.52678589 -8.27601624 107.31219482 C-8.27909196 104.07468401 -8.27320157 100.83734045 -8.26306319 97.59984851 C-8.25429453 94.21704429 -8.2560399 90.83424454 -8.25642395 87.45143127 C-8.25548688 81.77106417 -8.24679646 76.09075044 -8.2331543 70.41040039 C-8.21742076 63.8347659 -8.21215643 57.25918985 -8.21288985 50.6835379 C-8.21349932 44.36706633 -8.2084018 38.05061386 -8.20009804 31.73414803 C-8.19655949 29.04157423 -8.19473398 26.3490072 -8.19420433 23.6564312 C-8.19204838 19.90170181 -8.18332058 16.1470474 -8.17260742 12.39233398 C-8.17306061 11.26763199 -8.17351379 10.14292999 -8.17398071 8.98414612 C-8.16971573 7.96754913 -8.16545074 6.95095215 -8.16105652 5.90354919 C-8.15938067 5.01477302 -8.15770483 4.12599684 -8.1559782 3.21028805 C-7.86571268 -1.31890474 -3.56340333 0.02199487 0 0 Z M-4.02734375 4.203125 C-4.02734375 42.153125 -4.02734375 80.103125 -4.02734375 119.203125 C4.55265625 119.203125 13.13265625 119.203125 21.97265625 119.203125 C21.97265625 81.253125 21.97265625 43.303125 21.97265625 4.203125 C13.39265625 4.203125 4.81265625 4.203125 -4.02734375 4.203125 Z " fill="#F5F4FC" transform="translate(146.02734375,192.796875)"/>
<path d="M0 0 C5.94 0 11.88 0 18 0 C18.43344727 1.29736084 18.86689453 2.59472168 19.31347656 3.93139648 C20.92218824 8.73213645 22.55225783 13.52538997 24.18896484 18.31665039 C24.8950368 20.39343774 25.59525912 22.47222327 26.28955078 24.55297852 C27.2871721 27.53943833 28.30544591 30.51813644 29.328125 33.49609375 C29.63558655 34.43150497 29.9430481 35.3669162 30.25982666 36.33067322 C30.55983582 37.19149002 30.85984497 38.05230682 31.16894531 38.93920898 C31.55533173 40.08171364 31.55533173 40.08171364 31.94952393 41.24729919 C32.8715447 43.2065455 32.8715447 43.2065455 35.11444092 43.75379944 C35.73667542 43.83504562 36.35890991 43.91629181 37 44 C37 46.31 37 48.62 37 51 C30.4 51 23.8 51 17 51 C17 48.69 17 46.38 17 44 C18.65 44 20.3 44 22 44 C21.505 41.03 21.505 41.03 21 38 C14.73 38 8.46 38 2 38 C1.67 39.98 1.34 41.96 1 44 C2.32 44 3.64 44 5 44 C5 46.31 5 48.62 5 51 C-0.94 51 -6.88 51 -13 51 C-13 49.02 -13 47.04 -13 45 C-12.40670898 44.84096191 -11.81341797 44.68192383 -11.20214844 44.51806641 C-7.75212044 42.13976551 -7.02865067 38.53768437 -5.765625 34.7109375 C-5.48273621 33.89251373 -5.19984741 33.07408997 -4.90838623 32.23086548 C-4.00836885 29.61676235 -3.12902355 26.99622806 -2.25 24.375 C-1.64327592 22.60110059 -1.03521887 20.82765649 -0.42578125 19.0546875 C1.0649958 14.7082564 2.53727176 10.35594655 4 6 C2.68 6 1.36 6 0 6 C0 4.02 0 2.04 0 0 Z " fill="#F5F4FC" transform="translate(159,325)"/>
<path d="M0 0 C1.63388672 -0.02513672 1.63388672 -0.02513672 3.30078125 -0.05078125 C6.6875 0.3125 6.6875 0.3125 13.6875 3.3125 C14.0175 13.2125 14.3475 23.1125 14.6875 33.3125 C16.0075 33.6425 17.3275 33.9725 18.6875 34.3125 C18.6875 36.2925 18.6875 38.2725 18.6875 40.3125 C14.3975 40.3125 10.1075 40.3125 5.6875 40.3125 C5.3575 39.6525 5.0275 38.9925 4.6875 38.3125 C4.06875 38.8075 3.45 39.3025 2.8125 39.8125 C-1.62388637 41.94196546 -5.47440493 41.97259323 -10.3125 41.3125 C-14.90159869 39.4428672 -16.68396282 37.12578086 -18.6875 32.75 C-21.21432456 25.53050127 -21.51755661 18.60776947 -18.6875 11.4375 C-14.81619597 3.76353209 -8.48721879 0.02991969 0 0 Z " fill="#F5F5FC" transform="translate(306.3125,335.6875)"/>
<path d="M0 0 C1.02075623 -0.00287018 1.02075623 -0.00287018 2.06213379 -0.00579834 C3.50122446 -0.00715963 4.94032744 -0.00346705 6.37939453 0.00488281 C8.58524087 0.01558372 10.79027281 0.00498628 12.99609375 -0.0078125 C14.39323097 -0.00649089 15.79036768 -0.00392848 17.1875 0 C18.46302734 0.00225586 19.73855469 0.00451172 21.05273438 0.00683594 C24.09375 0.265625 24.09375 0.265625 26.09375 2.265625 C26.29210567 4.84467773 26.36652102 7.31634331 26.35253906 9.89648438 C26.3560437 10.68360306 26.35954834 11.47072174 26.36315918 12.2816925 C26.37198243 14.89100896 26.36612532 17.50005565 26.359375 20.109375 C26.36072148 21.91776583 26.36266187 23.72615631 26.36517334 25.5345459 C26.3681254 29.32759034 26.36382433 33.1205407 26.35449219 36.91357422 C26.3430976 41.78303262 26.34965663 46.65227058 26.36163712 51.52172089 C26.3688535 55.25683258 26.36656881 58.99189175 26.36138153 62.727005 C26.36004442 64.52281215 26.36169489 66.31862402 26.36634064 68.11442566 C26.37140226 70.62133474 26.36370093 73.12788348 26.35253906 75.63476562 C26.35658752 76.3818428 26.36063599 77.12891998 26.36480713 77.89863586 C26.32227869 83.03709631 26.32227869 83.03709631 24.09375 85.265625 C19.67531451 85.6646889 15.24255161 85.59465857 10.80810547 85.58129883 C8.60203766 85.57813688 6.39730831 85.60160076 4.19140625 85.62695312 C2.79427253 85.62922588 1.39713519 85.62992972 0 85.62890625 C-1.27552734 85.63188721 -2.55105469 85.63486816 -3.86523438 85.63793945 C-4.86876953 85.51507568 -5.87230469 85.39221191 -6.90625 85.265625 C-9.3519974 81.59700389 -9.18842763 78.85422266 -9.16503906 74.61303711 C-9.1685437 73.83552597 -9.17204834 73.05801483 -9.17565918 72.25694275 C-9.18446583 69.68552742 -9.17863173 67.1143869 -9.171875 64.54296875 C-9.17322182 62.7584274 -9.17516249 60.97388641 -9.17767334 59.18934631 C-9.18062304 55.44935615 -9.17633139 51.70946149 -9.16699219 47.96948242 C-9.15558948 43.16843293 -9.16216325 38.36760683 -9.17413712 33.56656551 C-9.18135283 29.88206794 -9.17906926 26.19762362 -9.17388153 22.51312447 C-9.17254466 20.7424371 -9.17419405 18.97174493 -9.17884064 17.20106316 C-9.18390207 14.73018391 -9.17620161 12.25967027 -9.16503906 9.78881836 C-9.16908752 9.05266296 -9.17313599 8.31650757 -9.17730713 7.55804443 C-9.11594684 0.25151322 -6.85289604 0.01211983 0 0 Z M-3.90625 4.265625 C-3.90625 29.345625 -3.90625 54.425625 -3.90625 80.265625 C4.67375 80.265625 13.25375 80.265625 22.09375 80.265625 C22.09375 55.185625 22.09375 30.105625 22.09375 4.265625 C13.51375 4.265625 4.93375 4.265625 -3.90625 4.265625 Z " fill="#F9F8FD" transform="translate(272.90625,231.734375)"/>
<path d="M0 0 C1.98 0.99 1.98 0.99 4 2 C4 33.68 4 65.36 4 98 C12.58 98 21.16 98 30 98 C30 71.6 30 45.2 30 18 C31.32 18.66 32.64 19.32 34 20 C34.04627253 30.52652818 34.08184327 41.0530323 34.10362434 51.57964134 C34.1140764 56.46719318 34.12826144 61.35467561 34.15087891 66.2421875 C34.17255671 70.95596629 34.1845579 75.66967818 34.18975449 80.38350296 C34.19345937 82.18490274 34.20069374 83.98629872 34.21146011 85.78767014 C34.22590787 88.30432901 34.22798078 90.82070889 34.22705078 93.33740234 C34.23424133 94.08762161 34.24143188 94.83784088 34.24884033 95.61079407 C34.22810432 100.77189568 34.22810432 100.77189568 32 103 C29.05078125 103.25878906 29.05078125 103.25878906 25.3125 103.265625 C24.65419189 103.26753845 23.99588379 103.2694519 23.31762695 103.27142334 C21.9256146 103.2727845 20.53358953 103.26909283 19.14160156 103.26074219 C17.00817411 103.250041 14.87558869 103.26063906 12.7421875 103.2734375 C11.39062314 103.27211589 10.0390593 103.26955347 8.6875 103.265625 C7.45386719 103.26336914 6.22023438 103.26111328 4.94921875 103.25878906 C2 103 2 103 0 101 C-0.24609566 99.17654991 -0.24609566 99.17654991 -0.24050903 96.92514038 C-0.24325836 96.07256149 -0.24600769 95.2199826 -0.24884033 94.34156799 C-0.24164978 93.40433395 -0.23445923 92.46709991 -0.22705078 91.50146484 C-0.22734283 90.51606216 -0.22763489 89.53065948 -0.22793579 88.51539612 C-0.22653864 85.24715472 -0.21095927 81.97913924 -0.1953125 78.7109375 C-0.19158374 76.44935226 -0.18873612 74.18776541 -0.18673706 71.92617798 C-0.17908981 65.96504276 -0.15943194 60.00400453 -0.1373291 54.04290771 C-0.11689417 47.96351433 -0.10774038 41.88410531 -0.09765625 35.8046875 C-0.07618709 23.86974898 -0.042038 11.93488255 0 0 Z " fill="#FEFEFE" transform="translate(307,214)"/>
<path d="M0 0 C7.9333389 4.04557246 13.74538769 9.69607117 16.90234375 18.0703125 C19.77426663 27.98434764 18.1096843 36.09442642 13.16015625 45.1015625 C8.27686496 51.90594555 0.36410388 56.49999504 -7.83984375 58.1015625 C-16.51496139 58.9640981 -23.54009349 57.02629861 -30.58984375 51.9140625 C-37.1859396 46.45760624 -41.24778457 39.58843651 -42.17578125 30.98828125 C-42.30397346 20.48933929 -39.9970674 13.63494597 -32.84375 5.89453125 C-23.69876026 -2.28782799 -11.48460191 -4.4604443 0 0 Z M-31.83984375 12.1015625 C-37.22207593 19.57688497 -37.86922994 26.00217706 -36.83984375 35.1015625 C-34.5710448 40.95628193 -31.16742558 45.68644594 -25.83984375 49.1015625 C-25.01484375 49.6584375 -24.18984375 50.2153125 -23.33984375 50.7890625 C-17.66447397 53.76863163 -10.66385481 54.16307728 -4.50390625 52.453125 C2.79906514 49.53692141 8.00999144 44.86381644 11.59765625 37.8515625 C13.99839113 31.70359362 14.32836966 25.6889081 12.27734375 19.390625 C8.99378621 12.14940208 3.90494038 6.43932536 -3.6953125 3.57421875 C-15.04523496 1.07268757 -24.26809323 3.26785356 -31.83984375 12.1015625 Z " fill="#2198E0" transform="translate(335.83984375,148.8984375)"/>
<path d="M0 0 C0 3.3 0 6.6 0 10 C-2.31 10 -4.62 10 -7 10 C-7 8.35 -7 6.7 -7 5 C-10.3 5 -13.6 5 -17 5 C-17.33 6.65 -17.66 8.3 -18 10 C-13.98740019 12.67506654 -9.80789418 14.294993 -5.3046875 15.9375 C-2.9014474 17.04543442 -1.59909734 17.90274149 0 20 C1.4367494 24.51672716 1.42313369 28.0479492 -0.5 32.375 C-4.59165899 36.67124194 -7.64364401 37.83072927 -13.42578125 38.24609375 C-23.16399198 38.41800401 -23.16399198 38.41800401 -28 36 C-28 32.37 -28 28.74 -28 25 C-26.02 25 -24.04 25 -22 25 C-21.34 26.65 -20.68 28.3 -20 30 C-16.37 30 -12.74 30 -9 30 C-9.33 28.02 -9.66 26.04 -10 24 C-10.80824219 23.75765625 -11.61648437 23.5153125 -12.44921875 23.265625 C-23.4227105 19.82399912 -23.4227105 19.82399912 -27 16 C-28.23987863 12.2803641 -28.5369813 8.86475277 -28 5 C-21.56430067 -6.13871037 -10.14823974 -3.86599609 0 0 Z " fill="#F4F3FC" transform="translate(252,339)"/>
<path d="M0 0 C3.5541545 6.94604691 7.09310696 13.89960629 10.61290073 20.86311626 C12.24780712 24.09641357 13.8878136 27.3269025 15.53979492 30.55151367 C17.13416462 33.66413989 18.71471516 36.78342736 20.28596306 39.90778542 C21.18007436 41.67679844 22.08831628 43.4386464 22.99671936 45.20036316 C23.53735519 46.28110611 24.07799103 47.36184906 24.63500977 48.4753418 C25.11688248 49.42354294 25.59875519 50.37174408 26.0952301 51.34867859 C27.13659297 54.40026957 27.02418069 55.96927302 26 59 C23.77837662 60.74556122 22.43828128 60.99927914 19.625 61.00390625 C15.60168439 59.46522751 14.52540131 56.24996154 12.75 52.5625 C12.34740967 51.7586084 11.94481934 50.9547168 11.5300293 50.12646484 C10.5834576 48.23332146 9.64424754 46.33648811 8.71044922 44.43701172 C7.07470308 41.1501099 5.40110816 37.88605712 3.71322632 34.6257782 C2.13141047 31.56690292 0.56272954 28.5013943 -1.00402832 25.43478394 C-1.79203692 23.89682604 -2.58410604 22.36094178 -3.38024902 20.82717896 C-4.51071684 18.64408762 -5.62252865 16.45240414 -6.73046875 14.2578125 C-7.07577133 13.60011368 -7.42107391 12.94241486 -7.77684021 12.26478577 C-9.21607698 9.37411989 -10.02486569 7.38331613 -9.8137207 4.12841797 C-9 2 -9 2 -7.25 0.6875 C-4.72980189 -0.08256053 -2.62106293 -0.04773459 0 0 Z " fill="#1502BF" transform="translate(357,230)"/>
<path d="M0 0 C5.94 0 11.88 0 18 0 C18 1.98 18 3.96 18 6 C17.01 6.33 16.02 6.66 15 7 C14.67 19.21 14.34 31.42 14 44 C15.32 44 16.64 44 18 44 C18 46.31 18 48.62 18 51 C11.73 51 5.46 51 -1 51 C-1 49.02 -1 47.04 -1 45 C1.475 44.505 1.475 44.505 4 44 C4 31.79 4 19.58 4 7 C2.68 7 1.36 7 0 7 C0 4.69 0 2.38 0 0 Z " fill="#F6F5FC" transform="translate(200,325)"/>
<path d="M0 0 C1.98 0 3.96 0 6 0 C6 2.64 6 5.28 6 8 C9.3 8 12.6 8 16 8 C15.67 10.31 15.34 12.62 15 15 C11.7 15 8.4 15 5 15 C5.33 23.25 5.66 31.5 6 40 C9.3 40 12.6 40 16 40 C16.66 41.98 17.32 43.96 18 46 C13.01887314 48.98628709 7.62709713 48.63035788 2 48 C-1.00376792 46.35087251 -2.4941697 45.47823669 -3.60717773 42.22558594 C-4.08910746 39.49515 -4.111805 36.91378061 -4.09765625 34.140625 C-4.09282227 32.46806641 -4.09282227 32.46806641 -4.08789062 30.76171875 C-4.07951172 29.60285156 -4.07113281 28.44398438 -4.0625 27.25 C-4.05798828 26.07566406 -4.05347656 24.90132813 -4.04882812 23.69140625 C-4.03705094 20.79421928 -4.02060326 17.89713546 -4 15 C-5.65 15 -7.3 15 -9 15 C-9 13.02 -9 11.04 -9 9 C-8.071875 8.62875 -7.14375 8.2575 -6.1875 7.875 C-2.4739697 5.69057041 -1.57312496 3.93281241 0 0 Z " fill="#F4F3FC" transform="translate(336,329)"/>
<path d="M0 0 C1.98 0 3.96 0 6 0 C6 2.64 6 5.28 6 8 C9.3 8 12.6 8 16 8 C15.67 10.31 15.34 12.62 15 15 C11.7 15 8.4 15 5 15 C5.33 23.25 5.66 31.5 6 40 C9.3 40 12.6 40 16 40 C16.66 41.98 17.32 43.96 18 46 C13.01887314 48.98628709 7.62709713 48.63035788 2 48 C-1.00376792 46.35087251 -2.4941697 45.47823669 -3.60717773 42.22558594 C-4.08910746 39.49515 -4.111805 36.91378061 -4.09765625 34.140625 C-4.09282227 32.46806641 -4.09282227 32.46806641 -4.08789062 30.76171875 C-4.07951172 29.60285156 -4.07113281 28.44398438 -4.0625 27.25 C-4.05798828 26.07566406 -4.05347656 24.90132813 -4.04882812 23.69140625 C-4.03705094 20.79421928 -4.02060326 17.89713546 -4 15 C-5.65 15 -7.3 15 -9 15 C-9 13.02 -9 11.04 -9 9 C-8.071875 8.62875 -7.14375 8.2575 -6.1875 7.875 C-2.4739697 5.69057041 -1.57312496 3.93281241 0 0 Z " fill="#F4F3FC" transform="translate(265,329)"/>
<path d="M0 0 C1.22589844 0.01353516 1.22589844 0.01353516 2.4765625 0.02734375 C3.41628906 0.04474609 3.41628906 0.04474609 4.375 0.0625 C4.46196177 3.99986123 4.51537835 7.93697628 4.5625 11.875 C4.58763672 12.99455078 4.61277344 14.11410156 4.63867188 15.26757812 C4.65317383 16.87729492 4.65317383 16.87729492 4.66796875 18.51953125 C4.69153442 20.0041687 4.69153442 20.0041687 4.71557617 21.51879883 C4.375 24.0625 4.375 24.0625 3.1027832 25.87768555 C0.68228906 27.53752136 -1.71865479 27.52347826 -4.58984375 27.65625 C-7.87040187 26.69915819 -8.88432386 24.93557205 -10.625 22.0625 C-11.15625 18.50390625 -11.15625 18.50390625 -11.125 14.625 C-11.14046875 12.70880859 -11.14046875 12.70880859 -11.15625 10.75390625 C-10.54898147 6.53428304 -9.2852066 4.35301675 -6.625 1.0625 C-4.21954362 -0.14022819 -2.67503047 -0.03821472 0 0 Z " fill="#1904C0" transform="translate(306.625,342.9375)"/>
<path d="M0 0 C2 1 2 1 3.03515625 3.6953125 C6.45107092 15.09901244 6.45107092 15.09901244 7 21 C2.71 21 -1.58 21 -6 21 C-4.55613874 13.78069368 -2.42211826 6.94889267 0 0 Z " fill="#1F0BC1" transform="translate(170,334)"/>
<path d="M0 0 C-0.203125 2.3203125 -0.203125 2.3203125 -1 5 C-3.109375 6.6171875 -3.109375 6.6171875 -5.75 7.875 C-6.61109375 8.30554688 -7.4721875 8.73609375 -8.359375 9.1796875 C-11.35302946 10.10966892 -13.02531826 9.86672382 -16 9 C-15.796875 6.6796875 -15.796875 6.6796875 -15 4 C-12.890625 2.3828125 -12.890625 2.3828125 -10.25 1.125 C-9.38890625 0.69445312 -8.5278125 0.26390625 -7.640625 -0.1796875 C-4.64697054 -1.10966892 -2.97468174 -0.86672382 0 0 Z " fill="#1506C0" transform="translate(355,219)"/>
</svg>
